REM DIRINDEX 1\2,1\3
REM DIRNAME cjc039,folder01,folder02
TITLE ""
FILE "3061-3080.mp3" MP3
  TRACK 01 AUDIO
    TITLE "0:"
    INDEX 01 00:00:00
  TRACK 02 AUDIO
    TITLE "2:cjc039_5121"
    INDEX 01 00:00:27
  TRACK 03 AUDIO
    TITLE "0:"
    INDEX 01 00:01:44
  TRACK 04 AUDIO
    TITLE "3:cjc039_5122"
    INDEX 01 00:02:16
  TRACK 05 AUDIO
    TITLE "0:"
    INDEX 01 00:05:52
  TRACK 06 AUDIO
    TITLE "2:cjc039_5123"
    INDEX 01 00:07:29
  TRACK 07 AUDIO
    TITLE "0:"
    INDEX 01 00:08:60
  TRACK 08 AUDIO
    TITLE "3:cjc039_5124"
    INDEX 01 00:09:32
  TRACK 09 AUDIO
    TITLE "0:"
    INDEX 01 00:14:37
  TRACK 10 AUDIO
    TITLE "2:cjc039_5125"
    INDEX 01 00:16:08
  TRACK 11 AUDIO
    TITLE "0:"
    INDEX 01 00:16:73
  TRACK 12 AUDIO
    TITLE "3:cjc039_5126"
    INDEX 01 00:17:37
  TRACK 13 AUDIO
    TITLE "0:"
    INDEX 01 00:20:28
  TRACK 14 AUDIO
    TITLE "2:cjc039_5127"
    INDEX 01 00:22:01
  TRACK 15 AUDIO
    TITLE "0:"
    INDEX 01 00:23:34
  TRACK 16 AUDIO
    TITLE "3:cjc039_5128"
    INDEX 01 00:24:02
  TRACK 17 AUDIO
    TITLE "0:"
    INDEX 01 00:28:00
  TRACK 18 AUDIO
    TITLE "2:cjc039_5129"
    INDEX 01 00:29:48
  TRACK 19 AUDIO
    TITLE "0:"
    INDEX 01 00:30:71
  TRACK 20 AUDIO
    TITLE "3:cjc039_5130"
    INDEX 01 00:31:49
  TRACK 21 AUDIO
    TITLE "0:"
    INDEX 01 00:35:63
  TRACK 22 AUDIO
    TITLE "2:cjc039_5131"
    INDEX 01 00:37:32
  TRACK 23 AUDIO
    TITLE "0:"
    INDEX 01 00:38:51
  TRACK 24 AUDIO
    TITLE "3:cjc039_5132"
    INDEX 01 00:39:15
  TRACK 25 AUDIO
    TITLE "0:"
    INDEX 01 00:42:43
  TRACK 26 AUDIO
    TITLE "2:cjc039_5133"
    INDEX 01 00:44:12
  TRACK 27 AUDIO
    TITLE "0:"
    INDEX 01 00:45:35
  TRACK 28 AUDIO
    TITLE "3:cjc039_5134"
    INDEX 01 00:46:06
  TRACK 29 AUDIO
    TITLE "0:"
    INDEX 01 00:51:05
  TRACK 30 AUDIO
    TITLE "2:cjc039_5135"
    INDEX 01 00:52:53
  TRACK 31 AUDIO
    TITLE "0:"
    INDEX 01 00:54:07
  TRACK 32 AUDIO
    TITLE "3:cjc039_5136"
    INDEX 01 00:54:56
  TRACK 33 AUDIO
    TITLE "0:"
    INDEX 01 00:59:41
  TRACK 34 AUDIO
    TITLE "2:cjc039_5137"
    INDEX 01 01:01:15
  TRACK 35 AUDIO
    TITLE "0:"
    INDEX 01 01:02:20
  TRACK 36 AUDIO
    TITLE "3:cjc039_5138"
    INDEX 01 01:02:73
  TRACK 37 AUDIO
    TITLE "0:"
    INDEX 01 01:06:57
  TRACK 38 AUDIO
    TITLE "2:cjc039_5139"
    INDEX 01 01:08:27
  TRACK 39 AUDIO
    TITLE "0:"
    INDEX 01 01:09:42
  TRACK 40 AUDIO
    TITLE "3:cjc039_5140"
    INDEX 01 01:10:14
  TRACK 41 AUDIO
    TITLE "0:"
    INDEX 01 01:14:68
  TRACK 42 AUDIO
    TITLE "2:cjc039_5141"
    INDEX 01 01:16:44
  TRACK 43 AUDIO
    TITLE "0:"
    INDEX 01 01:17:65
  TRACK 44 AUDIO
    TITLE "3:cjc039_5142"
    INDEX 01 01:18:37
  TRACK 45 AUDIO
    TITLE "0:"
    INDEX 01 01:22:44
  TRACK 46 AUDIO
    TITLE "2:cjc039_5143"
    INDEX 01 01:24:22
  TRACK 47 AUDIO
    TITLE "0:"
    INDEX 01 01:25:33
  TRACK 48 AUDIO
    TITLE "3:cjc039_5144"
    INDEX 01 01:26:05
  TRACK 49 AUDIO
    TITLE "0:"
    INDEX 01 01:29:17
  TRACK 50 AUDIO
    TITLE "2:cjc039_5145"
    INDEX 01 01:30:64
  TRACK 51 AUDIO
    TITLE "0:"
    INDEX 01 01:31:71
  TRACK 52 AUDIO
    TITLE "3:cjc039_5146"
    INDEX 01 01:32:47
  TRACK 53 AUDIO
    TITLE "0:"
    INDEX 01 01:36:15
  TRACK 54 AUDIO
    TITLE "2:cjc039_5147"
    INDEX 01 01:37:62
  TRACK 55 AUDIO
    TITLE "0:"
    INDEX 01 01:39:17
  TRACK 56 AUDIO
    TITLE "3:cjc039_5148"
    INDEX 01 01:39:64
  TRACK 57 AUDIO
    TITLE "0:"
    INDEX 01 01:44:32
  TRACK 58 AUDIO
    TITLE "2:cjc039_5149"
    INDEX 01 01:46:08
  TRACK 59 AUDIO
    TITLE "0:"
    INDEX 01 01:47:25
  TRACK 60 AUDIO
    TITLE "3:cjc039_5150"
    INDEX 01 01:47:72
  TRACK 61 AUDIO
    TITLE "0:"
    INDEX 01 01:50:41
  TRACK 62 AUDIO
    TITLE "2:cjc039_5151"
    INDEX 01 01:52:18
  TRACK 63 AUDIO
    TITLE "0:"
    INDEX 01 01:53:41
  TRACK 64 AUDIO
    TITLE "3:cjc039_5152"
    INDEX 01 01:54:17
  TRACK 65 AUDIO
    TITLE "0:"
    INDEX 01 01:58:44
  TRACK 66 AUDIO
    TITLE "2:cjc039_5153"
    INDEX 01 02:00:18
  TRACK 67 AUDIO
    TITLE "0:"
    INDEX 01 02:01:25
  TRACK 68 AUDIO
    TITLE "3:cjc039_5154"
    INDEX 01 02:01:74
  TRACK 69 AUDIO
    TITLE "0:"
    INDEX 01 02:06:20
  TRACK 70 AUDIO
    TITLE "2:cjc039_5155"
    INDEX 01 02:07:67
  TRACK 71 AUDIO
    TITLE "0:"
    INDEX 01 02:09:32
  TRACK 72 AUDIO
    TITLE "3:cjc039_5156"
    INDEX 01 02:10:06
  TRACK 73 AUDIO
    TITLE "0:"
    INDEX 01 02:13:54
  TRACK 74 AUDIO
    TITLE "2:cjc039_5157"
    INDEX 01 02:15:25
  TRACK 75 AUDIO
    TITLE "0:"
    INDEX 01 02:16:23
  TRACK 76 AUDIO
    TITLE "3:cjc039_5158"
    INDEX 01 02:17:00
  TRACK 77 AUDIO
    TITLE "0:"
    INDEX 01 02:19:66
  TRACK 78 AUDIO
    TITLE "2:cjc039_5159"
    INDEX 01 02:21:39
  TRACK 79 AUDIO
    TITLE "0:"
    INDEX 01 02:22:62
  TRACK 80 AUDIO
    TITLE "3:cjc039_5160"
    INDEX 01 02:23:34
  TRACK 81 AUDIO
    TITLE "0:"
    INDEX 01 02:27:03
